<?xml version="1.0" encoding="UTF-8"?>
<svg enable-background="new 0 0 500 500" version="1.1" viewBox="0 0 500 500" xmlns="http://www.w3.org/2000/svg">
 <circle cx="250" cy="250" r="250" fill="#F1EA23" stroke="#FFF200" stroke-miterlimit="10" stroke-width="4"/>
 <path d="m231.97 160.3c0 30.315-39.437 54.89-88.085 54.89-48.649 0-88.086-24.575-88.086-54.89 0-30.314 39.438-36.037 88.086-36.037 48.648 1e-3 88.085 5.723 88.085 36.037z" stroke="#E7E515" stroke-miterlimit="10"/>
 <path d="m437.02 160.3c0 30.315-39.437 54.89-88.085 54.89s-88.086-24.575-88.086-54.89c0-30.314 39.438-36.037 88.086-36.037s88.085 5.722 88.085 36.037z" stroke="#E7E515" stroke-miterlimit="10"/>
 <path d="m223.27 152.77c7.466 9.711 14.056 11.567 24.57 11.476 6.668-0.058 19.342-2.066 22.711-9.836" fill="none" stroke="#000" stroke-miterlimit="10" stroke-width="6"/>
 <path d="m225.19 169.29c14.563 14.7 42.211 5.106 46.722-3.279" fill="none" stroke="#000" stroke-miterlimit="10" stroke-width="4"/>
 <path d="m229.56 161.8c-0.46 3.923-1.512 7.444-1.512 11.371 7.377 0.425 14.498 2.161 21.962 2.564 11.785 0.637 12.904-2.918 16.35-13.192-11.198 3.471-25.673 0.078-36.8 0.078" stroke="#000" stroke-miterlimit="10" stroke-width="4"/>
 <path d="m215.63 327.11c11.743 6.007 37.593 7.156 50.929 7.738 25.479 1.111 46.95-2.386 70.074-11.839 33.578-13.726 63.666-33.233 92.264-53.928 7.756-5.614 14.018-10.306 18.816-17.723 2.514-3.882 3.151-8.527 5.496-12.287 2.087 27.012 3.994 59.797-1.979 86.349-5.725 25.44-30.296 55.632-52.586 71.604-15.108 10.825-32.057 21.555-50.364 27.876-18.651 6.438-40.437 9.457-60.022 12.044-20.363 2.69-39.672 2.979-60.162 3.281 23.352-7.825 24.125-33.377 22.162-54.252-2.1-22.325-9.241-39.21-23.64-56.643" fill="#fff" stroke="#000" stroke-miterlimit="10" stroke-width="4"/>
 <path d="m248.71 390.95c27.893-0.088 58.097-6.941 85.814-13.54 16.437-3.913 32.192-12.516 52.978-26.913 14.456-10.012 28.552-23.114 39.794-36.592 15.335-18.389 23.711-53.06 25.917-74.84" fill="none" stroke="#000" stroke-miterlimit="10" stroke-width="4"/>
 <path d="m431.28 154.21c0 30.314-36.292 54.891-81.063 54.891-44.769 0-83.222-18.379-83.222-48.693 0-3.969 16.584 39 86.968 39 65.717 0 77.317-56.247 77.317-45.198z" fill="#fff" stroke="#fff" stroke-miterlimit="10"/>
 <path d="m226.02 154.21c0 30.314-36.292 54.89-81.063 54.89-44.769 0-83.222-18.379-83.222-48.693 0-3.969 16.584 39 86.968 39 65.716 0 77.317-56.246 77.317-45.197z" fill="#fff" stroke="#fff" stroke-miterlimit="10"/>
</svg>
